# xmcd
#
# Track frame offsets:
#	150
#	19509
#	40138
#	59116
#	71156
#	88454
#	104058
#	119795
#	136778
#	152424
#	169232
#	187440
#	205761
#
# Disc length: 3003 seconds
#
# Revision: 0
# Processed by: cddbd v1.5.1PL0 Copyright (c) Steve Scherf et al.
# Submitted via: dBpowerAMP V4.0
#
DISCID=ca0bb90d
DTITLE=Vel Omarr - Rhythms and the Blues
DYEAR=1998
DGENRE=R&B
TTITLE0=Back to the Rhythm and the Blues
TTITLE1=I'm Your Lover
TTITLE2=if I Should Get to Heaven
TTITLE3=When You're Here
TTITLE4=Feels Like Love
TTITLE5=It's Got to Be Love
TTITLE6=A Family Thing
TTITLE7=Start Loving Me
TTITLE8=That's All That Matters
TTITLE9=That's Alright With Me
TTITLE10=Dance With Me Honey
TTITLE11=Morality
TTITLE12=You're All That
EXTD=
EXTT0=
EXTT1=
EXTT2=
EXTT3=
EXTT4=
EXTT5=
EXTT6=
EXTT7=
EXTT8=
EXTT9=
EXTT10=
EXTT11=
EXTT12=
PLAYORDER=
